<svg version="1.1" width="580" height="400" xmlns="http://www.w3.org/2000/svg" xmlns:xlink="http://www.w3.org/1999/xlink" id="svg24" overflow="hidden"><defs id="defs28"></defs><g id="g22" transform="matrix(1,0,0,1,1.07341,-13.9543)"><g id="g32" transform="matrix(0.99304,0,0,0.806362,62.3673,34.1396)"><path d=" M 157.223 353.042 C 104.874 348.106 81.4778 334.225 45.6795 286.864 C 25.7467 260.493 14.7425 243.968 16.0451 242.36 C 16.3387 241.998 17.7404 242.761 19.16 244.056 C 46.9152 269.378 81.7834 287.316 116.643 294.207 C 126.86 296.227 156.056 295.944 166.788 293.722 C 197.149 287.434 226.939 270.949 252.789 246.133 C 281.787 218.293 312.902 198.695 344.157 188.585 C 364.71 181.936 373.393 180.634 397.444 180.595 C 414.467 180.567 420.767 180.935 427.834 182.373 C 440.137 184.875 455.461 189.578 464.235 193.544 C 477.802 199.677 480.454 201.567 476.693 202.424 C 475.672 202.657 470.46 203.828 465.112 205.027 C 447.326 209.014 421.981 220.911 402.505 234.415 C 391.267 242.208 377.616 253.47 363.002 267.009 C 312.094 314.171 263.693 341.78 214.548 351.694 C 205.29 353.561 171.224 354.362 157.223 353.042 Z M 82.606 229.474 C 62.1672 226.962 48.7506 223.682 33.9824 217.587 C 15.0685 209.782 11.7662 206.958 20.0031 205.633 C 42.1264 202.075 69.4127 189.935 93.2674 173.038 C 106.218 163.864 113.546 157.808 129.729 142.904 C 170.288 105.55 207.082 81.1817 244.059 67.1838 C 272.848 56.2858 296.657 52.7928 327.345 54.9654 C 392.224 59.5587 414.523 73.4578 460.872 138.195 C 475.608 158.778 480.452 167.06 477.755 167.06 C 477.354 167.06 472.704 163.499 467.422 159.147 C 438.244 135.108 405.857 119.838 373.942 115.071 C 363.064 113.446 341.172 113.658 330.744 115.489 C 296.861 121.438 271.869 135.546 234.395 169.876 C 200.05 201.34 161.88 221.234 123.555 227.644 C 115.076 229.062 88.807 230.236 82.606 229.474 Z" id="path36" stroke-width="0.900218" fill="#C6C7C8"/><path d=" M 77.7436 228.025 C 67.5701 226.756 56.4067 224.373 47.3539 221.538 C 34.2342 217.429 17.3693 209.805 17.3693 207.982 C 17.3693 207.524 18.7369 206.878 20.4083 206.545 C 39.1599 202.814 54.3061 197.133 72.8813 186.863 C 91.4124 176.617 107.277 164.623 130.847 143.039 C 198.89 80.7275 258.729 52.7894 318.43 55.4575 C 372.015 57.8523 396.514 66.6227 423.194 92.9617 C 438.853 108.421 478.79 162.014 476.634 164.675 C 476.378 164.991 472.039 161.876 466.993 157.753 C 437.88 133.965 405.898 118.96 373.964 114.104 C 364.005 112.589 341.437 112.824 330.83 114.551 C 298.076 119.887 271.049 134.972 235.62 167.691 C 201.251 199.433 164.602 219.075 126.54 226.154 C 114.181 228.452 88.9349 229.42 77.7436 228.025 Z" id="path34" stroke-width="0.900218" fill="#FDDA04"/></g><text id="svg_2" stroke="#000000" stroke-width="0" fill="#930000" font-family="Simonetta,Times New Roman" font-size="24" text-anchor="start" transform="matrix(2.871,0,0,6.5,-253.521,-995.5)" xml:space="preserve" x="118.781" y="192.615">CAPSULEFY</text></g></svg>