<svg version="1.1" width="711.201" height="383.598" viewBox="0 0 711.201 383.598" xmlns="http://www.w3.org/2000/svg" xmlns:xlink="http://www.w3.org/1999/xlink" id="svg3430" overflow="hidden"><defs id="defs3434"><clipPath id="clipPath3444"><path d=" M 11.52 162 C 11.52 81.677 135.307 16.561 288 16.561 L 288 16.561 C 440.693 16.561 564.481 81.677 564.481 162 L 564.481 162 C 564.481 242.322 440.693 307.439 288 307.439 L 288 307.439 C 135.307 307.439 11.52 242.322 11.52 162" id="path3446"/></clipPath><radialGradient cx="0" cy="0" r="1" fx="0" fy="0" gradientUnits="userSpaceOnUse" spreadMethod="pad" id="radialGradient3452" gradientTransform="matrix(363.058,0,0,-363.058,177.52,256.307)"><stop offset="0" stop-color="#AEB2D5" stop-opacity="1"/><stop offset="0.3" stop-color="#AEB2D5" stop-opacity="1"/><stop offset="0.75" stop-color="#484C89" stop-opacity="1"/><stop offset="1" stop-color="#484C89" stop-opacity="1"/></radialGradient><clipPath id="clipPath3468"><path d=" M 0 324 L 576 324 L 576 0 L 0 0 L 0 324 Z" id="path3470"/></clipPath><clipPath id="clipPath3480"><path d=" M 0 324 L 576 324 L 576 0 L 0 0 L 0 324 Z" id="path3482"/></clipPath></defs><g id="g3438" transform="matrix(1.25,0,0,-1.25,-4.4,394.299)"><g id="g3440"><g id="g3442" clip-path="url(#clipPath3444)"><g id="g3448"><g id="g3450"><path d=" M 11.52 162 C 11.52 81.677 135.307 16.561 288 16.561 L 288 16.561 C 440.693 16.561 564.481 81.677 564.481 162 L 564.481 162 C 564.481 242.322 440.693 307.439 288 307.439 L 288 307.439 C 135.307 307.439 11.52 242.322 11.52 162" id="path3462" stroke="none" fill="url(#radialGradient3452)"/></g></g></g></g><g id="g3464"><g id="g3466" clip-path="url(#clipPath3468)"><g id="g3472" transform="matrix(1,0,0,1,288,27.3594)"><path d=" M 0 0 C 146.729 0 265.68 60.281 265.68 134.641 C 265.68 209 146.729 269.282 0 269.282 C -146.729 269.282 -265.68 209 -265.68 134.641 C -265.68 60.281 -146.729 0 0 0" id="path3474" stroke="none" fill="#777BB3" fill-rule="nonzero" fill-opacity="1"/></g></g></g><g id="g3476"><g id="g3478" clip-path="url(#clipPath3480)"><g id="g3484" transform="matrix(1,0,0,1,161.734,145.307)"><path d=" M 0 0 C 12.065 0 21.072 2.225 26.771 6.611 C 32.409 10.952 36.303 18.473 38.344 28.964 C 40.247 38.77 39.522 45.617 36.19 49.312 C 32.783 53.086 25.417 55 14.297 55 L -4.984 55 L -15.673 0 L 0 0 Z M -63.063 -67.75 C -63.958 -67.75 -64.808 -67.35 -65.377 -66.658 C -65.947 -65.967 -66.178 -65.057 -66.007 -64.178 L -37.679 81.573 C -37.405 82.982 -36.17 84 -34.734 84 L 26.32 84 C 45.508 84 59.79 78.79 68.767 68.513 C 77.792 58.182 80.579 43.741 77.05 25.592 C 75.614 18.198 73.144 11.331 69.709 5.183 C 66.27 -0.972 61.725 -6.667 56.198 -11.747 C 49.582 -17.939 42.094 -22.429 33.962 -25.071 C 25.959 -27.678 15.681 -29 3.414 -29 L -21.308 -29 L -28.368 -65.322 C -28.642 -66.732 -29.876 -67.75 -31.312 -67.75 L -63.063 -67.75 Z" id="path3486" stroke="none" fill="#000000" fill-rule="nonzero" fill-opacity="1"/></g><g id="g3488" transform="matrix(1,0,0,1,159.224,197.307)"><path d=" M 0 0 L 16.808 0 C 30.229 0 34.891 -2.945 36.475 -4.7 C 39.103 -7.614 39.599 -13.758 37.91 -22.467 C 36.012 -32.217 32.494 -39.13 27.452 -43.012 C 22.29 -46.986 13.898 -49 2.511 -49 L -9.523 -49 L 0 0 Z M 28.831 35 L -32.224 35 C -35.096 35 -37.565 32.964 -38.113 30.145 L -66.441 -115.606 C -66.783 -117.365 -66.321 -119.184 -65.182 -120.567 C -64.042 -121.95 -62.344 -122.75 -60.552 -122.75 L -28.802 -122.75 C -25.929 -122.75 -23.46 -120.714 -22.912 -117.895 L -16.324 -84 L 5.925 -84 C 18.507 -84 29.099 -82.628 37.404 -79.923 C 45.945 -77.148 53.803 -72.443 60.758 -65.939 C 66.51 -60.647 71.248 -54.707 74.838 -48.282 C 78.429 -41.855 81.009 -34.688 82.506 -26.98 C 86.221 -7.876 83.203 7.422 73.537 18.486 C 63.965 29.444 48.923 35 28.831 35 M -16.802 -55 L 2.511 -55 C 15.312 -55 24.847 -52.589 31.112 -47.766 C 37.378 -42.942 41.604 -34.891 43.8 -23.609 C 45.901 -12.777 44.944 -5.133 40.929 -0.68 C 36.909 3.773 28.87 6 16.808 6 L -4.946 6 L -16.802 -55 M 28.831 29 C 47.198 29 60.597 24.18 69.019 14.539 C 77.44 4.898 79.976 -8.559 76.616 -25.836 C 75.233 -32.953 72.894 -39.46 69.601 -45.355 C 66.304 -51.254 61.999 -56.648 56.679 -61.539 C 50.339 -67.472 43.296 -71.7 35.546 -74.218 C 27.796 -76.743 17.925 -78 5.925 -78 L -21.271 -78 L -28.802 -116.75 L -60.552 -116.75 L -32.224 29 L 28.831 29" id="path3490" stroke="none" fill="#FFFFFF" fill-rule="nonzero" fill-opacity="1"/></g><g id="g3492" transform="matrix(1,0,0,1,311.583,116.307)"><path d=" M 0 0 C -0.896 0 -1.745 0.4 -2.314 1.092 C -2.885 1.783 -3.116 2.692 -2.945 3.572 L 9.586 68.061 C 10.778 74.194 10.484 78.596 8.759 80.456 C 7.703 81.593 4.531 83.5 -4.848 83.5 L -27.55 83.5 L -43.305 2.428 C -43.579 1.018 -44.814 0 -46.25 0 L -77.75 0 C -78.646 0 -79.495 0.4 -80.065 1.092 C -80.635 1.783 -80.866 2.693 -80.695 3.572 L -52.367 149.323 C -52.093 150.732 -50.858 151.75 -49.422 151.75 L -17.922 151.75 C -17.026 151.75 -16.177 151.35 -15.607 150.659 C -15.037 149.967 -14.806 149.058 -14.977 148.178 L -21.813 113 L 2.609 113 C 21.214 113 33.83 109.72 41.178 102.972 C 48.668 96.088 51.005 85.081 48.125 70.253 L 34.945 2.428 C 34.671 1.018 33.437 0 32 0 L 0 0 Z" id="path3494" stroke="none" fill="#000000" fill-rule="nonzero" fill-opacity="1"/></g><g id="g3496" transform="matrix(1,0,0,1,293.661,271.057)"><path d=" M 0 0 L -31.5 0 C -34.373 0 -36.842 -2.036 -37.39 -4.855 L -65.718 -150.606 C -66.06 -152.365 -65.598 -154.184 -64.458 -155.567 C -63.318 -156.95 -61.62 -157.75 -59.828 -157.75 L -28.328 -157.75 C -25.456 -157.75 -22.986 -155.714 -22.438 -152.895 L -7.155 -74.25 L 13.074 -74.25 C 22.437 -74.25 24.402 -76.25 24.481 -76.336 C 25.049 -76.947 25.796 -79.777 24.563 -86.117 L 12.032 -150.606 C 11.69 -152.365 12.152 -154.184 13.292 -155.567 C 14.432 -156.95 16.13 -157.75 17.922 -157.75 L 49.922 -157.75 C 52.794 -157.75 55.264 -155.714 55.812 -152.895 L 68.991 -85.07 C 72.084 -69.149 69.438 -57.206 61.13 -49.57 C 53.202 -42.289 39.922 -38.75 20.531 -38.75 L -0.253 -38.75 L 5.89 -7.145 C 6.231 -5.386 5.77 -3.566 4.63 -2.184 C 3.49 -0.801 1.792 0 0 0 M 0 -6 L -7.531 -44.75 L 20.531 -44.75 C 38.188 -44.75 50.367 -47.832 57.07 -53.988 C 63.773 -60.148 65.781 -70.129 63.102 -83.926 L 49.922 -151.75 L 17.922 -151.75 L 30.453 -87.262 C 31.879 -79.926 31.355 -74.922 28.879 -72.254 C 26.402 -69.586 21.133 -68.25 13.074 -68.25 L -12.102 -68.25 L -28.328 -151.75 L -59.828 -151.75 L -31.5 -6 L 0 -6" id="path3498" stroke="none" fill="#FFFFFF" fill-rule="nonzero" fill-opacity="1"/></g><g id="g3500" transform="matrix(1,0,0,1,409.55,145.307)"><path d=" M 0 0 C 12.065 0 21.072 2.225 26.771 6.611 C 32.409 10.951 36.303 18.472 38.345 28.964 C 40.248 38.77 39.523 45.617 36.19 49.312 C 32.783 53.086 25.417 55 14.297 55 L -4.984 55 L -15.673 0 L 0 0 Z M -63.062 -67.75 C -63.957 -67.75 -64.807 -67.35 -65.376 -66.658 C -65.946 -65.967 -66.178 -65.057 -66.007 -64.178 L -37.679 81.573 C -37.404 82.982 -36.17 84 -34.733 84 L 26.32 84 C 45.509 84 59.79 78.79 68.768 68.513 C 77.793 58.183 80.579 43.742 77.051 25.592 C 75.613 18.198 73.144 11.331 69.709 5.183 C 66.27 -0.972 61.725 -6.667 56.198 -11.747 C 49.582 -17.939 42.094 -22.429 33.962 -25.071 C 25.959 -27.678 15.681 -29 3.414 -29 L -21.309 -29 L -28.366 -65.322 C -28.641 -66.732 -29.875 -67.75 -31.312 -67.75 L -63.062 -67.75 Z" id="path3502" stroke="none" fill="#000000" fill-rule="nonzero" fill-opacity="1"/></g><g id="g3504" transform="matrix(1,0,0,1,407.039,197.307)"><path d=" M 0 0 L 16.808 0 C 30.229 0 34.891 -2.945 36.475 -4.7 C 39.104 -7.614 39.6 -13.758 37.91 -22.466 C 36.012 -32.217 32.493 -39.13 27.452 -43.012 C 22.29 -46.986 13.898 -49 2.511 -49 L -9.522 -49 L 0 0 Z M 28.831 35 L -32.223 35 C -35.095 35 -37.564 32.964 -38.112 30.145 L -66.44 -115.606 C -66.782 -117.365 -66.32 -119.184 -65.181 -120.567 C -64.041 -121.95 -62.343 -122.75 -60.551 -122.75 L -28.801 -122.75 C -25.929 -122.75 -23.459 -120.714 -22.911 -117.895 L -16.324 -84 L 5.925 -84 C 18.507 -84 29.099 -82.628 37.404 -79.923 C 45.945 -77.148 53.805 -72.442 60.76 -65.937 C 66.512 -60.646 71.248 -54.707 74.838 -48.282 C 78.429 -41.855 81.009 -34.688 82.506 -26.98 C 86.221 -7.875 83.203 7.423 73.537 18.487 C 63.965 29.444 48.924 35 28.831 35 M -16.801 -55 L 2.511 -55 C 15.312 -55 24.847 -52.589 31.112 -47.766 C 37.379 -42.942 41.604 -34.891 43.8 -23.609 C 45.902 -12.777 44.945 -5.133 40.929 -0.68 C 36.909 3.773 28.87 6 16.808 6 L -4.946 6 L -16.801 -55 M 28.831 29 C 47.198 29 60.597 24.18 69.019 14.539 C 77.441 4.898 79.976 -8.559 76.616 -25.836 C 75.233 -32.953 72.894 -39.46 69.601 -45.355 C 66.304 -51.254 61.999 -56.648 56.679 -61.539 C 50.339 -67.472 43.296 -71.7 35.546 -74.218 C 27.796 -76.743 17.925 -78 5.925 -78 L -21.271 -78 L -28.801 -116.75 L -60.551 -116.75 L -32.223 29 L 28.831 29" id="path3506" stroke="none" fill="#FFFFFF" fill-rule="nonzero" fill-opacity="1"/></g></g></g></g></svg>