<svg version="1.1" width="110.421" height="109.846" xmlns="http://www.w3.org/2000/svg" xmlns:xlink="http://www.w3.org/1999/xlink" id="svg2169" overflow="hidden"><defs id="defs2171"><linearGradient id="linearGradient11301"><stop offset="0" stop-color="#FFE052" stop-opacity="1"/><stop offset="1" stop-color="#FFC331" stop-opacity="1"/></linearGradient><linearGradient x1="89.1367" y1="111.921" x2="147.777" y2="168.101" gradientUnits="userSpaceOnUse" xlink:href="#linearGradient11301" id="linearGradient11307"></linearGradient><linearGradient id="linearGradient9515"><stop offset="0" stop-color="#387EB8" stop-opacity="1"/><stop offset="1" stop-color="#366994" stop-opacity="1"/></linearGradient><linearGradient x1="55.5492" y1="77.0703" x2="110.149" y2="131.853" gradientUnits="userSpaceOnUse" xlink:href="#linearGradient9515" id="linearGradient9521"></linearGradient></defs><g id="layer1" transform="matrix(1,0,0,1,-473.361,-251.725)"><g id="g1894" transform="matrix(1,0,0,1,428.423,184.256)"><path d=" M 99.75 67.4688 C 71.7183 67.4688 73.4688 79.625 73.4688 79.625 L 73.5 92.2188 L 100.25 92.2188 L 100.25 96 L 62.875 96 C 62.875 96 44.9375 93.9657 44.9375 122.25 C 44.9375 150.534 60.5938 149.531 60.5938 149.531 L 69.9375 149.531 L 69.9375 136.406 C 69.9375 136.406 69.4338 120.75 85.3438 120.75 C 101.254 120.75 111.875 120.75 111.875 120.75 C 111.875 120.75 126.781 120.991 126.781 106.344 C 126.781 91.6965 126.781 82.125 126.781 82.125 C 126.781 82.125 129.044 67.4688 99.75 67.4688 Z M 85 75.9375 C 87.6614 75.9375 89.8125 78.0886 89.8125 80.75 C 89.8125 83.4114 87.6614 85.5625 85 85.5625 C 82.3386 85.5625 80.1875 83.4114 80.1875 80.75 C 80.1875 78.0886 82.3386 75.9375 85 75.9375 Z" id="path8615" color="#000000" stroke="none" stroke-width="1" stroke-linecap="butt" stroke-linejoin="miter" stroke-miterlimit="4" stroke-dasharray="" stroke-dashoffset="0" stroke-opacity="1" fill="url(#linearGradient9521)" fill-rule="nonzero" fill-opacity="1" visibility="visible" display="inline" overflow="visible" opacity="1"/><path d=" M 100.546 177.315 C 128.578 177.315 126.827 165.159 126.827 165.159 L 126.796 152.565 L 100.046 152.565 L 100.046 148.784 L 137.421 148.784 C 137.421 148.784 155.359 150.818 155.359 122.534 C 155.359 94.2493 139.702 95.2523 139.702 95.2523 L 130.359 95.2523 L 130.359 108.377 C 130.359 108.377 130.862 124.034 114.952 124.034 C 99.0424 124.034 88.4211 124.034 88.4211 124.034 C 88.4211 124.034 73.5148 123.793 73.5148 138.44 C 73.5148 153.087 73.5148 162.659 73.5148 162.659 C 73.5148 162.659 71.2517 177.315 100.546 177.315 Z M 115.296 168.846 C 112.635 168.846 110.484 166.695 110.484 164.034 C 110.484 161.372 112.635 159.221 115.296 159.221 C 117.958 159.221 120.109 161.372 120.109 164.034 C 120.109 166.695 117.958 168.846 115.296 168.846 Z" id="path8620" color="#000000" stroke="none" stroke-width="1" stroke-linecap="butt" stroke-linejoin="miter" stroke-miterlimit="4" stroke-dasharray="" stroke-dashoffset="0" stroke-opacity="1" fill="url(#linearGradient11307)" fill-rule="nonzero" fill-opacity="1" visibility="visible" display="inline" overflow="visible" opacity="1"/></g></g></svg>